<svg width="70" height="70" fill="none" xmlns="http://www.w3.org/2000/svg"><path d="M43.56 15.104a.933.933 0 00-1.006.169l-7.264 6.689-4.095.315c-1.143-7.08-7.194-9.512-7.458-9.614a.933.933 0 00-1.27.885l.15 10.257c0 2.862-.92 5.026-2.405 7.588-1.459 2.517-3.483 4.872-6.015 7-3.664 3.078-5.36 6.293-5.044 9.556.512 5.28 6.217 9.183 9.571 11.038a9.853 9.853 0 004.761 1.214h19.7a.933.933 0 00.934-.934V15.96c0-.37-.22-.706-.559-.855zm-14.222 7.315l-4.868.375-.113-7.713c1.622 1.01 4.265 3.247 4.98 7.338zM17.725 41.14c3.022 0 5.129 1.425 5.129 2.704 0 1.446-2.274 5.129-5.129 5.129-2.855 0-5.129-3.683-5.129-5.129 0-1.278 2.107-2.704 5.129-2.704zm24.527 17.194H23.485a7.985 7.985 0 01-3.858-.98c-3.033-1.679-8.187-5.156-8.617-9.586a6.123 6.123 0 01.164-2.068c.975 2.345 3.475 5.14 6.551 5.14 3.971 0 6.995-4.662 6.995-6.996 0-2.562-3.073-4.57-6.995-4.57-.66 0-1.292.061-1.893.168 2.495-2.169 4.514-4.557 5.995-7.113 1.451-2.505 2.462-4.804 2.632-7.662l11.297-.87a.93.93 0 00.56-.244l5.936-5.466v40.247z" fill="#fff"/><path d="M52.484 13.534a.933.933 0 00.933-.934v-1.866a.933.933 0 00-1.866 0V12.6c0 .516.418.934.933.934zm0 1.866a.933.933 0 00-.933.933V18.2a.933.933 0 101.866 0v-1.867a.933.933 0 00-.933-.933zm-1.866-1.868h-1.866a.933.933 0 000 1.867h1.866a.933.933 0 000-1.867zm5.6 0h-1.867a.933.933 0 000 1.867h1.867a.933.933 0 000-1.867zm3.669 8.269a.998.998 0 100 1.996.998.998 0 000-1.996z" fill="#FEE611"/><path d="M27.284 34.999a6.54 6.54 0 006.534 6.533 6.54 6.54 0 006.533-6.533 6.54 6.54 0 00-6.533-6.534A6.54 6.54 0 0027.284 35zm11.2 0a4.672 4.672 0 01-4.666 4.666A4.672 4.672 0 0129.15 35a4.672 4.672 0 014.667-4.667A4.672 4.672 0 0138.483 35z" fill="#fff"/><path d="M31.803 35.356a1.684 1.684 0 103.368 0 1.684 1.684 0 00-3.368 0zm-8.016-1.684a1.684 1.684 0 100 3.369 1.684 1.684 0 000-3.369z" fill="#FEE611"/></svg>