<svg width="370" height="67" fill="none" xmlns="http://www.w3.org/2000/svg"><path fill-rule="evenodd" clip-rule="evenodd" d="M416.489 1.468c.124-1.231 1.645-1.93 2.602-1.12 1.16.982.687 2.985-.971 2.956-.92-.017-1.722-.918-1.631-1.836zm7.243.01c-1.317-.836-3.209.214-2.768 1.84a1.767 1.767 0 003.297.309c.334-.7.159-1.707-.529-2.149zM67.328 4.532c.53-1.118 2.199-1.266 2.827-.18.764 1.313-.353 3.041-1.906 2.458-.86-.325-1.314-1.443-.92-2.278zm6.82 2.44c-.96-1.23-3.094-.875-3.224.804a1.766 1.766 0 003.002 1.398c.549-.547.723-1.554.222-2.202zm-6.663.368a5.435 5.435 0 00-2.198-.088c-1.606.266-3.003 1.268-2.903 3.05.007.343.128.674.344.94.32.367.82.45 1.277.527l.06.01a1.52 1.52 0 011.199 1.02c.068.174.097.36.085.547-.037.428-.324.722-.604 1.01l-.018.018a3.25 3.25 0 00-.652 1.008c-.344.86.127 1.79.986 2.199.86.407 2.014.328 2.98-.086a5.596 5.596 0 002.309-1.92c2.18-3.076.941-7.263-2.865-8.235zM5.219 11.664c.223-1.217 1.796-1.791 2.684-.905 1.077 1.072.444 3.03-1.206 2.868-.916-.092-1.643-1.054-1.478-1.963zm7.218.595c-1.245-.94-3.215-.045-2.907 1.61a1.766 1.766 0 003.262.575c.389-.67.296-1.688-.354-2.185zm-6.342 2.078a5.435 5.435 0 00-2.146.482c-1.482.672-2.573 2.001-2.016 3.697.096.33.298.618.575.819.404.272.909.223 1.37.18l.062-.007a1.52 1.52 0 011.42.676c.111.15.188.323.224.506.075.423-.126.781-.323 1.132l-.012.022a3.25 3.25 0 00-.37 1.142c-.11.92.586 1.697 1.521 1.87.935.171 2.03-.204 2.857-.853a5.595 5.595 0 001.734-2.451c1.312-3.536-.967-7.26-4.896-7.215zM-13.96 31.366c-.298-1.219-1.94-1.546-2.764-.623-.613.69-.492 1.89.242 2.445 1.326.997 2.884-.346 2.522-1.822zm-5.488 1.412c.735.09 1.444.33 2.084.704 3.378 2.005 3.388 6.37.43 8.708a5.595 5.595 0 01-2.757 1.192c-1.043.126-2.174-.124-2.883-.757-.709-.633-.899-1.66-.327-2.388.252-.315.56-.58.91-.783l.021-.012c.351-.198.709-.4.865-.8.064-.175.089-.362.072-.548a1.518 1.518 0 00-.862-1.316l-.055-.027c-.418-.202-.874-.423-1.078-.865a1.543 1.543 0 01-.065-.999c.406-1.738 2.029-2.306 3.645-2.109zm-34.441 2.538c-.034-1.237 1.386-2.125 2.438-1.443 1.276.825 1.063 2.872-.585 3.056-.915.1-1.826-.69-1.853-1.613zm7.185-.916c-1.413-.661-3.155.623-2.51 2.178a1.766 1.766 0 003.31-.115c.241-.736-.06-1.713-.8-2.063zm-7.772 4.266a5.436 5.436 0 011.999-.918c3.834-.859 6.836 2.312 6.286 6.042a5.596 5.596 0 01-1.188 2.758c-.673.807-1.667 1.4-2.617 1.426-.95.026-1.793-.59-1.876-1.513a3.25 3.25 0 01.125-1.194l.007-.023c.12-.385.242-.777.08-1.175a1.267 1.267 0 00-.323-.449 1.519 1.519 0 00-1.53-.365l-.058.018c-.443.139-.927.29-1.378.109a1.543 1.543 0 01-.733-.682c-.896-1.543-.105-3.07 1.206-4.035zm8.525 1.229c-.646-1.555 1.096-2.84 2.51-2.178.735.344 1.042 1.328.799 2.062a1.765 1.765 0 01-3.309.115zm3.064 2.683c-1.052-.682-2.473.207-2.44 1.444.028.922.94 1.713 1.854 1.613 1.65-.185 1.858-2.229.586-3.057zm28.7-7.71c.597-1.574 2.745-1.313 3.32.137.298.763-.152 1.68-.833 2.05a1.766 1.766 0 01-2.487-2.186zm3.42 4.789c-.575-1.452-2.725-1.711-3.32-.137a1.764 1.764 0 002.486 2.185c.68-.367 1.132-1.293.834-2.048zm-5.697 3.295c.824-.923 2.467-.596 2.765.623.358 1.475-1.196 2.819-2.523 1.822-.735-.554-.855-1.755-.242-2.445zM12.034 17.79c-.31-1.655 1.661-2.552 2.907-1.61.648.49.744 1.515.354 2.183a1.765 1.765 0 01-3.26-.573zm2.44 3.26c-.887-.885-2.461-.31-2.685.907-.165.908.563 1.87 1.478 1.962 1.652.162 2.28-1.794 1.207-2.868zm24.717-3.649a5.436 5.436 0 011.654 1.45c2.35 3.148.684 7.183-2.945 8.206a5.595 5.595 0 01-3.003.043c-1.011-.285-1.96-.949-2.371-1.806-.412-.857-.194-1.877.614-2.33a3.25 3.25 0 011.14-.374l.025-.003c.4-.048.808-.097 1.105-.407.127-.137.222-.3.278-.478a1.519 1.519 0 00-.292-1.546l-.04-.046c-.308-.347-.644-.727-.663-1.213 0-.343.113-.676.323-.947 1.042-1.45 2.759-1.35 4.175-.549zm4.056 3.95c1.156-1.225 3.04-.16 3.013 1.4-.017.819-.785 1.493-1.556 1.574a1.766 1.766 0 01-1.457-2.974zm1.32 5.734c.026-1.561-1.86-2.626-3.014-1.4a1.764 1.764 0 001.458 2.972c.77-.078 1.542-.76 1.556-1.572zm-6.525.856c1.115-.536 2.507.397 2.314 1.636-.236 1.5-2.187 2.145-3.029.715-.466-.794-.116-1.949.715-2.35zm6.759-9.738c.193-1.239-1.198-2.171-2.313-1.635-.83.402-1.18 1.557-.715 2.35.841 1.43 2.796.787 3.028-.715zm27.528-5.993c.129-1.678 2.264-2.035 3.225-.803.499.64.327 1.656-.223 2.2a1.765 1.765 0 01-3.002-1.397zm1.515 3.781c-.628-1.085-2.298-.936-2.828.181-.394.835.06 1.953.92 2.278 1.555.583 2.667-1.144 1.908-2.459zm24.265 2.994a5.435 5.435 0 011.375 1.716c1.765 3.51-.58 7.193-4.333 7.566a5.594 5.594 0 01-2.964-.482c-.946-.457-1.764-1.277-2.02-2.192-.255-.916.138-1.883 1.012-2.188.382-.13.785-.187 1.189-.169l.024.002c.402.022.812.046 1.16-.208.148-.112.27-.257.356-.422a1.519 1.519 0 00-.017-1.574l-.032-.052c-.242-.395-.507-.827-.44-1.31.059-.337.23-.646.483-.876 1.28-1.245 2.952-.848 4.207.189zm3.304 4.597c1.351-1.003 3.02.374 2.722 1.906-.16.802-1.034 1.332-1.807 1.277a1.766 1.766 0 01-.915-3.183zm.298 5.877c.299-1.533-1.372-2.91-2.723-1.905a1.765 1.765 0 00.916 3.181c.772.058 1.651-.48 1.807-1.276zm-6.575-.297c1.192-.333 2.4.829 1.993 2.015-.494 1.436-2.527 1.73-3.107.175-.32-.863.226-1.939 1.114-2.19zm8.356-8.407c.407-1.187-.8-2.348-1.991-2.014-.889.25-1.435 1.326-1.115 2.19.579 1.554 2.616 1.262 3.106-.176zm25.981-2.605a5.435 5.435 0 00-2.133-.537c-1.626-.07-3.199.625-3.467 2.39a1.55 1.55 0 00.144.99c.238.425.71.61 1.142.778l.057.022a1.52 1.52 0 01.964 1.244 1.27 1.27 0 01-.029.552c-.124.412-.465.641-.798.866l-.021.013c-.332.23-.619.519-.845.853-.513.771-.242 1.779.514 2.354.757.576 1.904.735 2.934.527a5.597 5.597 0 002.654-1.405c2.765-2.564 2.41-6.915-1.116-8.647zm6.597 1.005c-.687-1.4-2.849-1.49-3.32.126a1.768 1.768 0 002.652 1.984c.649-.423 1.025-1.373.668-2.11zm-2.854 4.756c.469-1.617 2.633-1.528 3.321-.126.357.729-.02 1.688-.669 2.108a1.765 1.765 0 01-2.652-1.982zm.707 4.01c-.392-1.19-2.057-1.387-2.805-.402-.557.736-.342 1.924.434 2.418 1.402.89 2.845-.573 2.371-2.015zm-4.027-12.552c.748-.985 2.411-.789 2.803.402.478 1.443-.969 2.905-2.369 2.016-.776-.494-.991-1.682-.434-2.418zm26.759 23.27a5.446 5.446 0 011.239 1.818c1.487 3.636-1.136 7.126-4.906 7.208a5.599 5.599 0 01-2.918-.71c-.908-.529-1.66-1.41-1.844-2.342-.184-.933.283-1.866 1.178-2.102.391-.1.797-.126 1.198-.077l.025.003c.398.054.806.109 1.171-.117a1.27 1.27 0 00.389-.394 1.515 1.515 0 00.104-1.57l-.028-.054c-.211-.413-.441-.864-.337-1.34a1.54 1.54 0 01.549-.836c1.372-1.143 3.009-.618 4.18.513zm2.938 4.84c1.425-.897 2.983.606 2.567 2.11-.222.787-1.134 1.248-1.901 1.133a1.764 1.764 0 01-1.354-2.441c.142-.332.382-.612.688-.803zm-.157 5.882c.416-1.506-1.143-3.008-2.567-2.11a1.766 1.766 0 00-.283 2.777c.262.249.594.41.95.465.765.117 1.683-.35 1.9-1.133zm-6.532-.805c1.214-.24 2.328 1.012 1.831 2.163-.603 1.394-2.654 1.53-3.111-.066-.252-.885.375-1.916 1.28-2.097zm8.981-7.736c.497-1.152-.616-2.402-1.83-2.162-.905.181-1.532 1.212-1.28 2.096.457 1.595 2.51 1.462 3.11.066zm25.59-4.462a5.436 5.436 0 00-2.105-.64c-1.621-.146-3.226.472-3.578 2.221-.079.334-.045.685.097.997.217.435.68.642 1.103.832l.056.025a1.516 1.516 0 01.903 1.288c.022.185.003.373-.056.55-.143.405-.495.618-.839.826l-.021.013a3.244 3.244 0 00-.885.811c-.549.746-.328 1.765.401 2.377.728.61 1.866.825 2.905.667a5.597 5.597 0 002.718-1.276c2.885-2.429 2.74-6.792-.699-8.691zm6.541 1.322c-.619-1.433-2.775-1.627-3.323-.034a1.772 1.772 0 00.544 1.942 1.764 1.764 0 002.01.166c.669-.391 1.09-1.322.769-2.075zm-3.079 4.612c.546-1.593 2.703-1.4 3.322.034.322.745-.1 1.685-.769 2.073a1.763 1.763 0 01-2.553-2.107zm.513 4.04c-.335-1.209-1.987-1.485-2.782-.537-.592.71-.434 1.905.317 2.437 1.357.955 2.869-.436 2.465-1.9zm-3.419-12.731c.794-.949 2.446-.672 2.781.536.408 1.464-1.108 2.855-2.464 1.9-.751-.531-.909-1.728-.317-2.436zm27.305 19.32c.667.324 1.26.78 1.743 1.342 2.545 2.994 1.136 7.126-2.422 8.377a5.593 5.593 0 01-2.993.232c-1.028-.22-2.016-.824-2.481-1.653-.465-.83-.312-1.861.466-2.364.34-.217.718-.368 1.115-.446l.024-.004c.396-.073.8-.148 1.077-.476.118-.144.202-.313.247-.495a1.52 1.52 0 00-.389-1.524l-.043-.043c-.329-.327-.689-.685-.738-1.169a1.54 1.54 0 01.263-.966c.948-1.512 2.667-1.522 4.131-.811zm4.298 3.686c1.076-1.295 3.023-.351 3.095 1.207.035.818-.689 1.54-1.453 1.669a1.767 1.767 0 01-1.642-2.876zm1.679 5.64c-.072-1.56-2.021-2.504-3.096-1.208a1.767 1.767 0 001.643 2.875c.763-.127 1.49-.857 1.453-1.668zm-6.458 1.266c1.079-.606 2.527.237 2.413 1.486-.141 1.512-2.047 2.279-2.978.905-.515-.763-.239-1.938.565-2.391zm6.131-10.145c.114-1.25-1.333-2.092-2.412-1.486-.803.453-1.079 1.628-.565 2.39.93 1.374 2.841.61 2.977-.904zm24.195-10.919a5.435 5.435 0 00-2.133-.536c-1.626-.068-3.199.627-3.466 2.392-.063.337-.012.685.145.99.238.425.71.61 1.142.778l.057.022a1.52 1.52 0 01.965 1.243c.031.184.021.373-.029.553-.124.41-.465.64-.798.865l-.021.014a3.25 3.25 0 00-.845.853c-.512.771-.241 1.779.516 2.354.757.575 1.904.734 2.934.526a5.596 5.596 0 002.653-1.407c2.764-2.565 2.407-6.916-1.12-8.647zm6.598 1.004c-.688-1.401-2.85-1.49-3.32.127a1.765 1.765 0 002.652 1.982c.649-.423 1.025-1.373.668-2.11zm-2.852 4.756c.469-1.617 2.632-1.53 3.32-.127.358.728-.018 1.688-.667 2.108a1.767 1.767 0 01-2.636-.924 1.758 1.758 0 01-.017-1.057zm.709 4.01c-.393-1.19-2.058-1.386-2.806-.4-.556.736-.341 1.923.436 2.417 1.401.889 2.844-.574 2.37-2.017zm-4.033-12.55c.748-.986 2.411-.79 2.804.4.478 1.443-.969 2.906-2.369 2.018-.776-.495-.992-1.682-.435-2.418zm30.615 11.182a5.432 5.432 0 011.832 1.218c2.747 2.808 1.63 7.029-1.832 8.524a5.593 5.593 0 01-2.97.44c-1.04-.147-2.068-.68-2.59-1.475-.522-.795-.44-1.835.3-2.39.325-.24.691-.417 1.081-.523l.024-.006c.39-.1.788-.203 1.041-.55.108-.152.18-.327.212-.51a1.517 1.517 0 00-.494-1.494l-.046-.04c-.351-.304-.735-.635-.818-1.115-.046-.34.023-.685.195-.981.84-1.575 2.555-1.705 4.065-1.098zm4.544 3.377c.983-1.367 2.991-.56 3.172.99.091.812-.58 1.582-1.334 1.765a1.766 1.766 0 01-1.838-2.755zm2.068 5.509c-.18-1.551-2.191-2.356-3.172-.989a1.765 1.765 0 001.839 2.753c.752-.18 1.427-.958 1.333-1.764zm-6.353 1.714c1.034-.68 2.537.06 2.51 1.315-.034 1.517-1.883 2.415-2.907 1.11-.567-.726-.374-1.917.397-2.425zm5.408-10.548c.027-1.254-1.475-1.994-2.509-1.315-.771.509-.964 1.7-.397 2.425 1.023 1.305 2.875.409 2.906-1.11zm22.191-13.438a5.436 5.436 0 00-2.197.108c-1.576.408-2.878 1.53-2.62 3.296.038.34.188.66.427.906.351.336.856.375 1.319.411l.061.005a1.517 1.517 0 011.284.909c.084.167.129.35.133.537.002.429-.258.748-.512 1.06l-.015.019a3.248 3.248 0 00-.56 1.062c-.266.887.286 1.772 1.178 2.102.892.33 2.035.148 2.96-.35a5.587 5.587 0 002.129-2.118c1.898-3.258.291-7.318-3.587-7.947zm6.604-.96c-1.065-1.14-3.16-.596-3.139 1.088a1.768 1.768 0 001.166 1.646 1.766 1.766 0 001.948-.521c.498-.594.581-1.613.025-2.213zm-1.345 5.38c-.022-1.683 2.074-2.229 3.14-1.088.554.594.473 1.62-.025 2.212a1.769 1.769 0 01-1.949.523 1.763 1.763 0 01-1.166-1.647zm1.845 3.631c-.722-1.025-2.371-.728-2.8.433-.318.866.233 1.94 1.12 2.186 1.599.443 2.554-1.377 1.68-2.619zm-7.51-10.834c.429-1.16 2.077-1.457 2.8-.432.877 1.24-.081 3.061-1.68 2.619-.886-.247-1.437-1.32-1.12-2.187zm32.583 6.863c.727.141 1.418.43 2.03.848 3.23 2.237 2.933 6.592-.182 8.717a5.594 5.594 0 01-2.833.995c-1.049.053-2.16-.275-2.823-.957-.663-.681-.78-1.718-.159-2.404.274-.297.6-.54.963-.718l.022-.01c.364-.173.735-.35.918-.738a1.25 1.25 0 00.111-.541 1.518 1.518 0 00-.768-1.373l-.053-.031c-.402-.231-.842-.484-1.014-.939a1.54 1.54 0 01.005-1c.527-1.706 2.185-2.159 3.783-1.85zM341.355 44c.706-1.529 2.831-1.118 3.302.369.244.781-.269 1.665-.974 1.987a1.769 1.769 0 01-2.468-1.308 1.774 1.774 0 01.14-1.048zm3.076 5.016c-.472-1.489-2.598-1.898-3.303-.369a1.759 1.759 0 00.344 1.989 1.764 1.764 0 001.984.365c.704-.318 1.219-1.21.975-1.985zm-5.914 2.888c.887-.863 2.503-.422 2.714.815.254 1.496-1.39 2.728-2.644 1.64-.694-.604-.73-1.81-.07-2.455zm3.31-11.382c-.211-1.237-1.826-1.678-2.713-.815-.66.645-.624 1.851.07 2.456 1.252 1.087 2.901-.144 2.643-1.641zm19.904-15.438a5.438 5.438 0 00-2.156.436c-1.496.64-2.616 1.945-2.096 3.652.088.331.285.624.557.831.398.28.904.243 1.366.21l.062-.005a1.518 1.518 0 011.406.706c.107.152.179.327.212.51.065.425-.143.78-.347 1.126l-.013.021c-.201.35-.335.735-.395 1.134-.129.916.549 1.71 1.48 1.902.932.192 2.035-.159 2.875-.79a5.6 5.6 0 001.787-2.413c1.388-3.506-.809-7.279-4.738-7.32zm6.386-1.939c-1.224-.967-3.214-.115-2.941 1.546a1.766 1.766 0 003.248.646c.403-.662.333-1.682-.307-2.192zm-.523 5.521c-.274-1.66 1.716-2.514 2.941-1.546.637.503.711 1.531.306 2.19a1.76 1.76 0 01-1.848.81 1.763 1.763 0 01-1.399-1.454zm2.368 3.314c-.868-.906-2.454-.365-2.704.847-.184.904.522 1.883 1.435 1.994 1.648.198 2.319-1.744 1.269-2.841zm-9.049-9.587c.25-1.211 1.835-1.752 2.703-.846 1.054 1.095.379 3.039-1.268 2.84-.913-.11-1.619-1.09-1.435-1.994zm35.549 4.289a5.434 5.434 0 012.012.888c3.185 2.3 2.802 6.65-.355 8.712a5.592 5.592 0 01-2.852.939c-1.05.031-2.154-.319-2.803-1.013-.65-.695-.746-1.734-.111-2.408.279-.291.61-.528.976-.698l.023-.01c.367-.165.741-.334.932-.719a1.26 1.26 0 00.122-.54 1.52 1.52 0 00-.741-1.388l-.052-.031c-.398-.24-.832-.5-.995-.959a1.539 1.539 0 01.025-1c.56-1.695 2.228-2.115 3.819-1.773zm5.052 2.555c.736-1.514 2.852-1.062 3.294.435.228.786-.302 1.659-1.014 1.967a1.765 1.765 0 01-2.28-2.402zm2.975 5.076c-.442-1.498-2.56-1.949-3.294-.434a1.762 1.762 0 002.28 2.4c.711-.305 1.244-1.187 1.014-1.966zm-5.97 2.77c.904-.846 2.511-.372 2.698.869.224 1.501-1.445 2.7-2.677 1.587-.681-.618-.693-1.824-.021-2.456zm3.536-11.314c-.187-1.24-1.793-1.714-2.696-.869-.673.633-.661 1.839.021 2.457 1.23 1.112 2.903-.086 2.675-1.588zM417.578 4.06a5.43 5.43 0 00-2.1.655c-1.424.79-2.404 2.202-1.712 3.847.122.32.347.591.64.77.424.238.923.15 1.38.068l.06-.01a1.522 1.522 0 011.471.558c.123.14.212.307.263.486.109.416-.062.79-.23 1.155l-.01.022a3.252 3.252 0 00-.277 1.169c-.035.925.721 1.644 1.667 1.74.946.096 2.008-.366 2.779-1.08a5.6 5.6 0 001.531-2.583c1.022-3.63-1.55-7.158-5.462-6.797zm6.198 2.964c-.442-1.624 1.45-2.677 2.768-1.839.685.436.863 1.45.528 2.147a1.758 1.758 0 01-1.755.995 1.764 1.764 0 01-1.541-1.303zm2.695 3.054c-.956-.812-2.478-.112-2.603 1.119-.091.919.711 1.82 1.631 1.837 1.66.028 2.129-1.973.972-2.957z" fill="url(#paint0_linear)" fill-opacity=".3"/><defs><linearGradient id="paint0_linear" x1=".5" y1="28.393" x2="369.5" y2="28.393" gradientUnits="userSpaceOnUse"><stop stop-color="#E6CC33"/><stop offset=".221" stop-color="#fff"/><stop offset=".728" stop-color="#fff" stop-opacity="0"/><stop offset="1" stop-color="#E6CC33"/></linearGradient></defs></svg>