<svg width="1920" height="1032" fill="none" xmlns="http://www.w3.org/2000/svg"><path d="M104.312 259.731a39.901 39.901 0 0115.297 5.164c24.801 14.717 24.872 46.762 3.155 63.923a41.058 41.058 0 01-20.229 8.745c-7.658.923-15.957-.908-21.163-5.557-5.205-4.648-6.598-12.18-2.401-17.524a23.827 23.827 0 016.678-5.749c2.623-1.479 5.335-2.96 6.501-5.958a9.303 9.303 0 00.535-4.025 11.152 11.152 0 00-6.332-9.658c-3.168-1.541-6.75-3.161-8.311-6.55a11.326 11.326 0 01-.48-7.331c2.98-12.757 14.892-16.925 26.75-15.48zm62.989 16.349c-4.219-10.649-19.987-12.56-24.37-1.005a12.966 12.966 0 003.543 14.376 12.966 12.966 0 0014.711 1.676c4.997-2.719 8.301-9.453 6.116-15.047zm.73 34.143c-4.218-10.66-19.998-12.561-24.37-1.004a12.95 12.95 0 003.538 14.381 12.958 12.958 0 0014.718 1.659c4.994-2.697 8.305-9.497 6.114-15.036zm-21.519 28.755c-2.183-8.943-14.246-11.346-20.293-4.57-4.5 5.066-3.616 13.877 1.776 17.945 9.74 7.32 21.147-2.546 18.517-13.375zm-1.916-89.613c-2.182-8.944-14.235-11.345-20.282-4.569-4.499 5.066-3.616 13.877 1.776 17.945 9.729 7.319 21.169-2.544 18.506-13.376zm131.458-121.451a39.912 39.912 0 0115.752-3.544c28.836-.326 45.562 27.008 35.936 52.959a41.063 41.063 0 01-12.732 17.99c-6.061 4.77-14.102 7.522-20.965 6.258-6.864-1.263-11.97-6.972-11.165-13.72a23.853 23.853 0 012.715-8.383c1.471-2.628 3.018-5.302 2.455-8.47a9.295 9.295 0 00-1.637-3.715 11.146 11.146 0 00-10.43-4.957c-3.508.331-7.41.809-10.506-1.273a11.332 11.332 0 01-4.222-6.012c-4.088-12.446 3.919-22.201 14.799-27.133zm62.304-18.792c-9.141-6.901-23.603-.334-21.338 11.816a12.965 12.965 0 0018.196 9.434 12.962 12.962 0 005.743-5.217c2.854-4.92 2.175-12.391-2.601-16.033zm18.379 28.785c-9.146-6.912-23.614-.33-21.338 11.815a12.947 12.947 0 0010.501 10.444 12.956 12.956 0 0013.433-6.236c2.864-4.901 2.156-12.431-2.596-16.023zm-3.428 35.751c-6.514-6.504-18.068-2.283-19.709 6.649-1.209 6.667 4.128 13.734 10.849 14.405 12.125 1.187 16.738-13.172 8.86-21.054zm-48.237-75.547c-6.514-6.504-18.058-2.287-19.699 6.644-1.209 6.668 4.127 13.734 10.849 14.405 12.115 1.192 16.758-13.181 8.85-21.049zm229.656 48.757a39.904 39.904 0 0112.144 10.64c17.252 23.109 5.019 52.727-21.621 60.238a41.075 41.075 0 01-22.037.311c-7.425-2.088-14.386-6.964-17.409-13.254-3.023-6.291-1.418-13.78 4.509-17.104a23.833 23.833 0 018.373-2.746c2.99-.359 6.063-.685 8.29-3.006a9.29 9.29 0 002.038-3.511 11.152 11.152 0 00-2.139-11.349c-2.334-2.639-5.02-5.51-5.161-9.238a11.334 11.334 0 012.37-6.954c7.649-10.636 20.248-9.913 30.643-4.027zm51.89 39.272c.191-11.452-13.636-19.269-22.118-10.281a12.96 12.96 0 00-2.246 14.635 12.962 12.962 0 0012.941 7.194c5.658-.593 11.294-5.543 11.423-11.548zm-12.431 31.809c.197-11.462-13.645-19.275-22.118-10.281a12.953 12.953 0 0010.701 21.819c5.647-.574 11.315-5.582 11.417-11.538zm-30.908 18.293c1.418-9.096-8.8-15.945-16.984-12.009-6.099 2.951-8.665 11.426-5.247 17.252 6.184 10.498 20.504 5.766 22.231-5.243zm32.626-83.485c1.417-9.096-8.791-15.94-16.975-12.004-6.099 2.952-8.665 11.427-5.247 17.253 6.174 10.492 20.523 5.776 22.222-5.249zm150.368-80.388a39.893 39.893 0 0116.132.646c27.942 7.136 37.036 37.864 21.031 60.446a41.063 41.063 0 01-16.947 14.089c-7.089 3.042-15.567 3.623-21.871.629-6.304-2.995-9.762-9.829-7.24-16.139a23.836 23.836 0 014.789-7.397c2.1-2.159 4.285-4.343 4.56-7.548a9.298 9.298 0 00-.621-4.012 11.144 11.144 0 00-8.796-7.484c-3.474-.587-7.367-1.133-9.82-3.944a11.334 11.334 0 01-2.525-6.9c-.733-13.079 9.522-20.433 21.308-22.386zm65.044-2.055c-7.048-9.029-22.716-6.422-23.667 5.9a12.962 12.962 0 0022.037 10.261c4.028-4.016 5.302-11.408 1.63-16.16zm10.316 32.556c-7.05-9.04-22.727-6.42-23.667 5.9a12.953 12.953 0 0022.035 10.25c4.032-3.995 5.295-11.452 1.632-16.15zm-12.55 33.652c-4.613-7.967-16.865-6.875-20.758 1.33-2.891 6.128.439 14.333 6.758 16.718 11.407 4.281 19.574-8.398 14-18.048zm-27.077-85.446c-4.612-7.967-16.854-6.876-20.747 1.328-2.891 6.128.439 14.334 6.758 16.719 11.396 4.282 19.595-8.403 13.989-18.047zm205.182 107.419a39.892 39.892 0 0110.098 12.598c12.952 25.766-4.266 52.793-31.808 55.536a41.068 41.068 0 01-21.753-3.543c-6.947-3.352-12.949-9.368-14.827-16.09-1.877-6.722 1.011-13.816 7.427-16.054a23.848 23.848 0 018.724-1.241c3.007.169 6.089.384 8.688-1.512a9.29 9.29 0 002.62-3.102 11.15 11.15 0 00-.125-11.548c-1.837-3.006-3.98-6.302-3.468-9.997a11.323 11.323 0 013.549-6.433c9.388-9.137 21.667-6.225 30.875 1.386zm44.232 47.732c2.19-11.243-10.06-21.355-19.981-13.986a12.957 12.957 0 00-4.767 14.017 12.958 12.958 0 0011.485 9.344c5.673.404 12.093-3.486 13.263-9.375zm-17.793 29.148c2.195-11.251-10.07-21.361-19.983-13.985a12.948 12.948 0 00-4.774 14.019 12.955 12.955 0 0011.5 9.333c5.66.422 12.115-3.52 13.257-9.367zm-33.628 12.614c2.984-8.708-5.881-17.237-14.626-14.79-6.521 1.84-10.528 9.737-8.18 16.071 4.255 11.416 19.182 9.257 22.806-1.281zm46.701-76.504c2.99-8.708-5.87-17.23-14.614-14.783-6.521 1.84-10.528 9.737-8.18 16.071 4.247 11.409 19.204 9.271 22.794-1.288zm175.04-23.064a39.839 39.839 0 0115.66 3.94c25.89 12.714 28.49 44.653 8.19 63.474a41.038 41.038 0 01-19.47 10.315c-7.56 1.524-15.98.354-21.54-3.869-5.55-4.223-7.54-11.621-3.78-17.281a23.997 23.997 0 016.21-6.258c2.5-1.681 5.08-3.371 6.01-6.452.37-1.319.44-2.703.21-4.054a11.087 11.087 0 00-2.26-5.552 11.169 11.169 0 00-4.81-3.577c-3.28-1.286-6.98-2.618-8.8-5.873a11.3 11.3 0 01-1.06-7.27c1.96-12.952 13.51-18.048 25.44-17.543zm64.09 11.325c-5.05-10.283-20.92-10.943-24.38.922-.75 2.539-.7 5.246.13 7.758a12.996 12.996 0 004.54 6.293 12.978 12.978 0 007.32 2.576c2.65.091 5.26-.63 7.48-2.066 4.77-3.105 7.53-10.079 4.91-15.483zm3.42 33.979c-5.05-10.293-20.93-10.943-24.37.923a12.936 12.936 0 004.66 14.057 12.947 12.947 0 0014.8.492c4.77-3.083 7.53-10.123 4.91-15.472zm-19.18 30.364c-2.88-8.743-15.1-10.186-20.59-2.954-4.09 5.405-2.51 14.119 3.19 17.749 10.28 6.528 20.87-4.207 17.4-14.795zm-8.99-89.182c-2.88-8.744-15.08-10.186-20.57-2.954-4.09 5.405-2.51 14.119 3.18 17.749 10.28 6.528 20.9-4.207 17.39-14.795zm175.84 167.849c3.91 3.781 7 8.32 9.09 13.34 10.92 26.692-8.34 52.306-36.01 52.91a41.066 41.066 0 01-21.41-5.214c-6.67-3.88-12.19-10.343-13.54-17.19-1.35-6.846 2.08-13.696 8.65-15.431 2.87-.732 5.85-.923 8.79-.562 2.99.4 6.04.854 8.78-.836a9.354 9.354 0 002.85-2.889 11.079 11.079 0 001.99-5.655c.14-2.031-.28-4.061-1.22-5.869-1.6-3.139-3.48-6.59-2.68-10.236a11.286 11.286 0 014.03-6.138c10.07-8.384 22.09-4.53 30.68 3.77zm40.41 51.01c3.05-11.041-8.38-22.069-18.84-15.49a12.996 12.996 0 00-5.06 5.888 13.01 13.01 0 00-.78 7.719c.53 2.593 1.84 4.96 3.76 6.784a12.974 12.974 0 006.97 3.42c5.62.842 12.32-2.54 13.95-8.321zm-20 27.683c3.06-11.048-8.39-22.076-18.84-15.49a12.919 12.919 0 00-5.06 5.887 12.944 12.944 0 00-.79 7.722 12.998 12.998 0 003.77 6.784 12.995 12.995 0 006.98 3.41c5.61.858 12.35-2.572 13.94-8.313zm-34.5 9.977c3.65-8.452-4.53-17.641-13.44-15.878-6.64 1.331-11.25 8.894-9.4 15.39 3.36 11.711 18.41 10.714 22.84.488zm52.48-72.663c3.65-8.451-4.52-17.632-13.43-15.87-6.65 1.331-11.25 8.894-9.4 15.391 3.35 11.703 18.42 10.729 22.83.479zm172.38-37.441a39.942 39.942 0 0115.45 4.688c25.24 13.942 26.31 45.97 5.13 63.794a41.06 41.06 0 01-19.95 9.368c-7.62 1.159-15.98-.414-21.32-4.899-5.35-4.486-6.97-11.971-2.95-17.443a23.853 23.853 0 016.5-5.952c2.58-1.56 5.24-3.124 6.32-6.156.43-1.3.57-2.68.4-4.04a11.079 11.079 0 00-1.99-5.654 11.176 11.176 0 00-4.63-3.804c-3.22-1.442-6.85-2.95-8.51-6.289a11.36 11.36 0 01-.71-7.313c2.58-12.842 14.36-17.377 26.26-16.3zm63.46 14.391c-4.54-10.513-20.36-11.935-24.39-.25a12.99 12.99 0 00-.24 7.755 12.956 12.956 0 0011.42 9.428c2.63.218 5.28-.376 7.57-1.704 4.91-2.872 8-9.705 5.64-15.229zm1.79 34.105c-4.55-10.524-20.38-11.936-24.39-.25a12.948 12.948 0 0018.74 15.468c4.91-2.85 8.01-9.75 5.65-15.218zm-20.62 29.405c-2.46-8.871-14.59-10.899-20.42-3.94-4.34 5.203-3.19 13.983 2.33 17.882 9.96 7.015 21.05-3.199 18.09-13.942zm-4.69-89.509c-2.46-8.872-14.58-10.899-20.41-3.94-4.34 5.203-3.19 13.983 2.33 17.882 9.95 7.015 21.08-3.197 18.08-13.942zm180.01 137.871a39.916 39.916 0 0112.79 9.852c18.68 21.973 8.34 52.305-17.77 61.482a41.083 41.083 0 01-21.98 1.702c-7.54-1.614-14.79-6.041-18.21-12.128-3.41-6.087-2.28-13.663 3.42-17.355a23.843 23.843 0 018.19-3.268c2.96-.548 6-1.067 8.08-3.524a9.365 9.365 0 001.81-3.633c.59-1.948.64-4.021.14-5.994-.5-1.972-1.54-3.77-2.99-5.197-2.5-2.486-5.36-5.182-5.73-8.894a11.29 11.29 0 011.92-7.089c6.96-11.098 19.58-11.172 30.33-5.954zm54.27 35.918c-.54-11.442-14.83-18.37-22.73-8.864a12.95 12.95 0 00-1.31 14.747 12.936 12.936 0 005.68 5.278 12.975 12.975 0 007.69 1.084c5.6-.948 10.92-6.244 10.67-12.245zm-10.4 32.53c-.53-11.452-14.84-18.375-22.72-8.864a12.848 12.848 0 00-2.98 7.167c-.24 2.638.34 5.285 1.65 7.584a12.96 12.96 0 005.7 5.275 12.918 12.918 0 007.68 1.073c5.6-.928 10.94-6.284 10.67-12.235zm-29.69 20.208c.84-9.168-9.79-15.358-17.71-10.913-5.9 3.33-7.93 11.951-4.15 17.55 6.83 10.086 20.83 4.459 21.86-6.637zm27.29-85.378c.84-9.168-9.78-15.353-17.7-10.908-5.9 3.33-7.93 11.95-4.15 17.549 6.82 10.082 20.85 4.469 21.85-6.641zm53.17 414.913c-2.19 11.243 10.06 21.354 19.98 13.986a12.954 12.954 0 004.58-6.262c.86-2.506.92-5.213.19-7.756a12.976 12.976 0 00-11.49-9.344c-5.67-.404-12.09 3.486-13.26 9.376zm4.72 34.741c-2.99 8.709 5.87 17.23 14.62 14.784 6.52-1.841 10.52-9.737 8.18-16.071-4.25-11.409-19.2-9.272-22.8 1.287zm-175.04 23.061a39.839 39.839 0 01-15.66-3.94c-25.89-12.713-28.49-44.653-8.19-63.474a41.047 41.047 0 0119.47-10.315c7.56-1.524 15.98-.354 21.54 3.869 5.55 4.223 7.54 11.622 3.78 17.281a23.997 23.997 0 01-6.21 6.258c-2.5 1.681-5.08 3.371-6.01 6.452a9.255 9.255 0 00-.21 4.054 11.087 11.087 0 002.26 5.552 11.169 11.169 0 004.81 3.577c3.28 1.286 6.98 2.619 8.8 5.873a11.3 11.3 0 011.06 7.27c-1.96 12.953-13.51 18.048-25.44 17.543zm-64.09-11.326c5.05 10.282 20.92 10.943 24.38-.923.75-2.538.7-5.245-.13-7.757a13.003 13.003 0 00-4.54-6.294 12.985 12.985 0 00-7.32-2.575 12.95 12.95 0 00-7.48 2.066c-4.77 3.105-7.53 10.078-4.91 15.483zm-3.42-33.978c5.05 10.294 20.93 10.943 24.37-.922a12.939 12.939 0 00-4.66-14.058 12.957 12.957 0 00-14.8-.492c-4.77 3.083-7.53 10.123-4.91 15.472zm19.18-30.364c2.88 8.743 15.1 10.186 20.59 2.955 4.09-5.406 2.51-14.12-3.18-17.75-10.29-6.528-20.88 4.208-17.41 14.795zm8.99 89.183c2.88 8.743 15.08 10.186 20.57 2.954 4.09-5.406 2.51-14.119-3.18-17.75-10.28-6.528-20.9 4.207-17.39 14.796zm-175.84-167.851c-3.91-3.78-7-8.32-9.09-13.34-10.92-26.691 8.33-52.305 36.01-52.91a41.057 41.057 0 0121.41 5.215c6.67 3.879 12.19 10.342 13.54 17.189 1.35 6.847-2.08 13.696-8.65 15.431-2.87.732-5.85.923-8.79.562-2.99-.4-6.04-.853-8.78.836a9.238 9.238 0 00-2.85 2.89 11.18 11.18 0 00-2 5.654c-.13 2.031.29 4.061 1.23 5.869 1.6 3.139 3.48 6.591 2.68 10.236a11.285 11.285 0 01-4.03 6.139c-10.07 8.383-22.09 4.53-30.68-3.771zm-40.41-51.006c-3.05 11.04 8.38 22.069 18.85 15.489 2.24-1.401 4-3.455 5.05-5.888a13.009 13.009 0 00.78-7.719 12.925 12.925 0 00-3.76-6.784 12.973 12.973 0 00-6.97-3.419c-5.62-.842-12.32 2.54-13.95 8.321zm20-27.687c-3.06 11.048 8.39 22.076 18.84 15.49a12.919 12.919 0 005.06-5.887 12.944 12.944 0 00.79-7.722 12.998 12.998 0 00-3.77-6.784 12.995 12.995 0 00-6.98-3.41c-5.61-.858-12.35 2.572-13.94 8.313zm34.5-9.976c-3.65 8.451 4.53 17.64 13.44 15.877 6.64-1.331 11.25-8.894 9.4-15.39-3.36-11.711-18.41-10.714-22.84-.487zm-52.48 72.663c-3.65 8.452 4.52 17.633 13.43 15.87 6.64-1.331 11.25-8.894 9.4-15.39-3.35-11.704-18.43-10.729-22.83-.48zm-172.38 37.443a39.942 39.942 0 01-15.45-4.688c-25.24-13.942-26.3-45.97-5.13-63.794a41.06 41.06 0 0119.95-9.368c7.63-1.158 15.98.414 21.32 4.9 5.35 4.485 6.98 11.97 2.95 17.442a23.856 23.856 0 01-6.5 5.953c-2.58 1.559-5.24 3.123-6.31 6.156a9.077 9.077 0 00-.41 4.039c.13 2.031.82 3.987 1.99 5.654a11.168 11.168 0 004.63 3.804c3.22 1.442 6.85 2.951 8.51 6.289a11.297 11.297 0 01.71 7.313c-2.58 12.843-14.36 17.378-26.26 16.3zm-63.46-14.391c4.54 10.513 20.36 11.935 24.39.25.87-2.5.95-5.206.24-7.755a12.956 12.956 0 00-11.42-9.428c-2.63-.218-5.28.376-7.56 1.704-4.92 2.872-8.01 9.705-5.65 15.229zm-1.79-34.105c4.55 10.524 20.38 11.936 24.39.25.88-2.5.96-5.208.25-7.758a12.948 12.948 0 00-18.99-7.71c-4.91 2.85-8.01 9.749-5.65 15.218zm20.62-29.407c2.46 8.872 14.59 10.9 20.43 3.94 4.34-5.203 3.18-13.982-2.34-17.882-9.96-7.015-21.05 3.2-18.09 13.942zm4.69 89.51c2.46 8.871 14.58 10.899 20.41 3.939 4.34-5.203 3.19-13.982-2.33-17.882-9.95-7.014-21.08 3.198-18.08 13.943zm-180.01-137.871a39.93 39.93 0 01-12.79-9.852c-18.68-21.974-8.34-52.305 17.77-61.483a41.093 41.093 0 0121.98-1.702c7.54 1.615 14.79 6.041 18.21 12.129 3.41 6.087 2.28 13.662-3.42 17.354a23.845 23.845 0 01-8.19 3.269c-2.96.547-6 1.067-8.08 3.523a9.372 9.372 0 00-1.81 3.633 11.195 11.195 0 00-.14 5.994 11.15 11.15 0 002.99 5.198c2.5 2.486 5.36 5.182 5.73 8.894a11.29 11.29 0 01-1.92 7.089c-6.96 11.097-19.58 11.172-30.33 5.954zm-54.27-35.918c.54 11.441 14.83 18.37 22.73 8.864a12.952 12.952 0 001.31-14.748 12.933 12.933 0 00-5.68-5.277 12.976 12.976 0 00-7.69-1.085c-5.6.949-10.92 6.245-10.67 12.246zm10.4-32.531c.53 11.451 14.84 18.374 22.73 8.864a12.91 12.91 0 002.97-7.168c.24-2.637-.34-5.284-1.65-7.583-1.31-2.3-3.3-4.141-5.69-5.276a12.969 12.969 0 00-7.69-1.073c-5.6.929-10.94 6.285-10.67 12.236zm29.69-20.207c-.84 9.167 9.79 15.357 17.71 10.913 5.9-3.331 7.93-11.951 4.15-17.55-6.83-10.086-20.83-4.459-21.86 6.637zm-27.29 85.379c-.84 9.168 9.78 15.353 17.7 10.908 5.9-3.33 7.93-11.95 4.15-17.549-6.82-10.082-20.85-4.469-21.85 6.641zm-161.94 84.069a39.878 39.878 0 01-15.658-3.934c-25.891-12.702-28.506-44.64-8.219-63.47a41.073 41.073 0 0119.472-10.324c7.56-1.527 15.978-.361 21.536 3.86 5.559 4.221 7.544 11.619 3.785 17.279a23.852 23.852 0 01-6.201 6.261c-2.497 1.683-5.083 3.374-6.008 6.455a9.301 9.301 0 00-.213 4.054 11.146 11.146 0 007.078 9.126c3.28 1.284 6.98 2.615 8.805 5.869a11.323 11.323 0 011.06 7.27c-1.958 12.953-13.501 18.054-25.437 17.554zm-64.088-11.296c5.051 10.281 20.921 10.934 24.373-.933a12.961 12.961 0 00-19.47-14.552c-4.766 3.107-7.525 10.082-4.903 15.485zm-3.436-33.977c5.051 10.292 20.932 10.935 24.373-.933a12.947 12.947 0 00-4.669-14.055 12.95 12.95 0 00-14.802-.486c-4.765 3.085-7.526 10.126-4.902 15.474zm19.169-30.373c2.885 8.742 15.102 10.18 20.591 2.946 4.084-5.407 2.504-14.12-3.194-17.748-10.29-6.524-20.878 4.216-17.397 14.802zm9.023 89.176c2.885 8.742 15.09 10.18 20.58 2.946 4.083-5.408 2.503-14.121-3.195-17.748-10.279-6.524-20.9 4.215-17.385 14.802zm-204.132-79.133a39.867 39.867 0 01-13.447-8.935c-20.165-20.617-11.967-51.596 13.442-62.573a41.064 41.064 0 0121.801-3.23c7.637 1.084 15.183 4.994 19.013 10.828 3.83 5.834 3.232 13.47-2.202 17.551a23.843 23.843 0 01-7.935 3.831c-2.916.753-5.918 1.484-7.818 4.079a9.293 9.293 0 00-1.554 3.751 11.143 11.143 0 003.625 10.965c2.663 2.306 5.706 4.796 6.34 8.472a11.33 11.33 0 01-1.427 7.207c-6.171 11.556-18.754 12.51-29.838 8.054zm-56.64-32.045c1.329 11.376 16.07 17.291 23.286 7.257a12.965 12.965 0 00.285-14.803 12.964 12.964 0 00-13.781-5.415c-5.529 1.338-10.459 6.992-9.79 12.961zm8.104-33.177c1.325 11.387 16.08 17.296 23.286 7.258a12.953 12.953 0 00-13.5-20.207c-5.521 1.317-10.475 7.032-9.786 12.949zm28.209-22.229c-.199 9.203 10.836 14.637 18.426 9.65 5.654-3.733 7.074-12.474 2.914-17.796-7.522-9.585-21.088-2.995-21.34 8.146zm-21.268 87.074c-.199 9.203 10.827 14.633 18.416 9.646 5.655-3.733 7.074-12.474 2.914-17.796-7.511-9.581-21.108-3.003-21.33 8.15zm-146.762 97.844a39.897 39.897 0 01-16.126.793c-28.466-4.621-40.26-34.417-26.33-58.334a41.072 41.072 0 0115.626-15.542c6.79-3.661 15.183-4.994 21.729-2.573 6.545 2.421 10.597 8.921 8.648 15.43a23.853 23.853 0 01-4.112 7.794c-1.899 2.337-3.881 4.707-3.87 7.924a9.31 9.31 0 00.976 3.941 11.155 11.155 0 009.427 6.671c3.512.275 7.439.472 10.132 3.054a11.322 11.322 0 013.129 6.647c1.895 12.962-7.665 21.201-19.229 24.195zm-64.602 7.835c7.823 8.366 23.197 4.374 23.047-7.984a12.963 12.963 0 00-22.863-8.257c-3.655 4.359-4.265 11.835-.184 16.241zm-13.174-31.508c7.826 8.377 23.207 4.371 23.047-7.984A12.95 12.95 0 00399.789 693a12.953 12.953 0 00-6.549 4.167c-3.661 4.338-4.254 11.878-.187 16.231zm9.503-34.634c5.303 7.524 17.41 5.345 20.557-3.173 2.334-6.361-1.713-14.238-8.22-16.051-11.743-3.248-18.748 10.108-12.337 19.224zm34.577 82.696c5.304 7.524 17.4 5.349 20.547-3.17 2.334-6.361-1.713-14.238-8.22-16.05-11.732-3.251-18.769 10.113-12.327 19.22zm-218.611-53.546a39.888 39.888 0 01-14.897-6.223c-23.708-16.42-21.533-48.391 1.333-63.987a41.078 41.078 0 0120.793-7.306c7.704-.383 15.854 2.025 20.721 7.027 4.867 5.002 5.728 12.613 1.167 17.65a23.853 23.853 0 01-7.065 5.267c-2.72 1.292-5.529 2.578-6.903 5.487a9.314 9.314 0 00-.815 3.977 11.15 11.15 0 005.639 10.079c3.052 1.759 6.512 3.627 7.832 7.117a11.328 11.328 0 01-.035 7.346c-3.867 12.516-16.042 15.839-27.77 13.566zm-61.689-20.725c3.463 10.918 19.058 13.93 24.24 2.71a12.964 12.964 0 00-9.382-18.223 12.96 12.96 0 00-7.702.932c-5.175 2.361-8.943 8.847-7.156 14.581zm1.666-34.109c3.461 10.929 19.069 13.932 24.24 2.71a12.95 12.95 0 00-17.086-17.28c-5.171 2.34-8.952 8.891-7.154 14.57zm23.483-27.176c1.55 9.075 13.415 12.317 19.922 5.982 4.844-4.738 4.58-13.589-.514-18.026-9.202-7.984-21.273 1.058-19.408 12.044zm-4.371 89.527c1.55 9.075 13.405 12.315 19.912 5.98 4.843-4.738 4.579-13.589-.514-18.026-9.192-7.983-21.295 1.054-19.398 12.046zM47.337 825.54a39.879 39.879 0 01-15.824 3.201c-28.837-.301-44.964-27.993-34.776-53.728a41.067 41.067 0 0113.12-17.709c6.163-4.637 14.262-7.213 21.097-5.801 6.834 1.413 11.815 7.232 10.863 13.96a23.844 23.844 0 01-2.897 8.322c-1.528 2.595-3.132 5.236-2.638 8.414a9.305 9.305 0 001.555 3.751 11.15 11.15 0 0010.32 5.183c3.514-.255 7.426-.649 10.476 1.501a11.326 11.326 0 014.09 6.102c3.817 12.532-4.4 22.11-15.386 26.804zm-62.697 17.435c8.989 7.099 23.59.848 21.59-11.348a12.96 12.96 0 00-10.273-10.662 12.963 12.963 0 00-13.57 5.924c-2.96 4.858-2.443 12.341 2.253 16.086zm33.04 11.732c6.37 6.644 18.004 2.68 19.839-6.214 1.353-6.639-3.828-13.82-10.534-14.637-12.086-1.456-17.04 12.813-9.306 20.851z" opacity=".7" fill="#CEF0F5"/></svg>