<svg width="40" height="40" fill="none" xmlns="http://www.w3.org/2000/svg"><path d="M27.952 28.898c-1.389-.984-2.185-2.448-2.185-4.017 0-3.245-2.502-6.017-5.577-6.178a5.845 5.845 0 00-4.372 1.61 5.84 5.84 0 00-1.837 4.275v.293c0 1.569-.796 3.033-2.185 4.017a6.099 6.099 0 00-2.502 5.92c.373 2.479 2.34 4.556 4.784 5.052.429.086.855.13 1.278.13.627 0 1.245-.096 1.847-.287a8.674 8.674 0 015.342 0 6.166 6.166 0 003.125.157c2.443-.495 4.41-2.573 4.784-5.053a6.098 6.098 0 00-2.502-5.919zm1.112 5.71c-.287 1.907-1.797 3.504-3.673 3.884a4.791 4.791 0 01-2.421-.118 10.18 10.18 0 00-6.192 0 4.786 4.786 0 01-2.421.118c-1.876-.38-3.386-1.977-3.674-3.884a4.7 4.7 0 011.926-4.563c1.765-1.252 2.778-3.134 2.778-5.164v-.294c0-1.243.497-2.399 1.399-3.255a4.447 4.447 0 013.33-1.226c2.34.123 4.245 2.265 4.245 4.775 0 2.03 1.013 3.912 2.778 5.164a4.7 4.7 0 011.925 4.563zm5.282-15.913a5.231 5.231 0 00-5.226 5.225 5.231 5.231 0 005.226 5.225 5.231 5.231 0 005.224-5.225 5.231 5.231 0 00-5.224-5.225zm0 9.045a3.824 3.824 0 01-3.82-3.82 3.824 3.824 0 013.82-3.82 3.824 3.824 0 013.819 3.82 3.824 3.824 0 01-3.82 3.82zm-7.236-9.449a5.231 5.231 0 005.225-5.225 5.231 5.231 0 00-5.225-5.225 5.231 5.231 0 00-5.226 5.225 5.231 5.231 0 005.226 5.225zm0-9.044a3.824 3.824 0 013.82 3.82 3.824 3.824 0 01-3.82 3.819 3.824 3.824 0 01-3.82-3.82 3.824 3.824 0 013.82-3.819zm-12.663 9.044a5.231 5.231 0 005.225-5.225 5.231 5.231 0 00-5.225-5.225 5.231 5.231 0 00-5.225 5.225 5.231 5.231 0 005.225 5.225zm0-9.044a3.824 3.824 0 013.82 3.82 3.824 3.824 0 01-3.82 3.819 3.824 3.824 0 01-3.82-3.82 3.824 3.824 0 013.82-3.819zm-9.045 9.448A5.231 5.231 0 00.177 23.92a5.231 5.231 0 005.225 5.225 5.231 5.231 0 005.225-5.225 5.231 5.231 0 00-5.225-5.225zm0 9.045a3.824 3.824 0 01-3.82-3.82 3.824 3.824 0 013.82-3.82 3.824 3.824 0 013.82 3.82 3.824 3.824 0 01-3.82 3.82zM3.514 2.811a.703.703 0 00.703-.703V.703a.703.703 0 00-1.406 0v1.405c0 .388.315.703.703.703zm0 1.405a.703.703 0 00-.703.703v1.406a.703.703 0 001.405 0V4.919a.703.703 0 00-.702-.703zm-2.811 0h1.405a.703.703 0 000-1.405H.703a.703.703 0 000 1.405zm4.217 0h1.405a.703.703 0 000-1.405H4.919a.703.703 0 000 1.405zm7.045-1.134a.751.751 0 100-1.502.751.751 0 000 1.502z" fill="#40B8A8"/><path d="M22.408 28.802a2.464 2.464 0 00-2.437-2.13 2.464 2.464 0 00-2.438 2.13 2.464 2.464 0 00-2.13 2.438c0 1.244.93 2.276 2.13 2.437a2.464 2.464 0 002.438 2.13 2.463 2.463 0 002.437-2.13 2.464 2.464 0 002.13-2.438 2.463 2.463 0 00-2.13-2.437zm-.329 3.492h-.351a.703.703 0 00-.703.702v.352a1.055 1.055 0 01-2.108 0v-.352a.703.703 0 00-.703-.702h-.351a1.055 1.055 0 010-2.109h.35a.703.703 0 00.704-.702v-.352a1.055 1.055 0 012.108 0v.352c0 .388.315.702.703.702h.351a1.055 1.055 0 010 2.109z" fill="#E6CC33"/></svg>