<svg width="24" height="25" fill="none" xmlns="http://www.w3.org/2000/svg"><g clip-path="url(#clip0)"><rect y=".667" width="24" height="24" rx="12" fill="#40B8A8"/><path d="M9.5 12.667a2.5 2.5 0 115 0 2.5 2.5 0 01-5 0zm-1.35 0a3.851 3.851 0 107.702 0 3.851 3.851 0 00-7.703 0zm6.954-4.004a.9.9 0 10.9-.9.9.9 0 00-.9.9zM8.97 18.772c-.73-.034-1.128-.155-1.392-.258-.35-.136-.6-.299-.863-.561a2.314 2.314 0 01-.561-.862c-.103-.264-.225-.662-.258-1.393-.036-.79-.044-1.028-.044-3.03 0-2.004.008-2.24.044-3.032.033-.731.156-1.128.258-1.393.136-.35.299-.6.561-.862.262-.263.512-.426.863-.561.264-.103.661-.225 1.392-.258.791-.037 1.029-.044 3.03-.044 2.002 0 2.24.008 3.031.044.732.033 1.128.156 1.393.258.35.135.6.298.863.56.262.263.425.513.56.863.104.264.226.662.259 1.393.036.791.043 1.028.043 3.031s-.007 2.24-.043 3.031c-.034.731-.156 1.129-.258 1.393-.136.35-.299.6-.561.862a2.33 2.33 0 01-.863.56c-.264.104-.661.226-1.393.259-.79.036-1.028.043-3.03.043-2.003 0-2.24-.007-3.03-.043zm-.062-13.56c-.798.037-1.344.163-1.82.349a3.679 3.679 0 00-1.329.865 3.664 3.664 0 00-.865 1.328c-.185.477-.312 1.022-.348 1.82-.037.8-.046 1.056-.046 3.093s.009 2.292.046 3.092c.036.799.163 1.344.348 1.82.192.494.448.913.865 1.33.418.416.835.672 1.329.864.477.186 1.022.312 1.82.349.8.036 1.056.045 3.093.045 2.036 0 2.292-.009 3.092-.045.798-.037 1.343-.163 1.82-.349a3.687 3.687 0 001.329-.865 3.68 3.68 0 00.865-1.328c.185-.477.312-1.022.348-1.82.036-.801.045-1.056.045-3.093s-.009-2.292-.045-3.092c-.036-.799-.163-1.344-.348-1.82a3.688 3.688 0 00-.865-1.33 3.669 3.669 0 00-1.328-.864c-.478-.186-1.023-.313-1.82-.349-.8-.036-1.056-.045-3.093-.045s-2.293.008-3.093.045z" fill="#fff"/></g><defs><clipPath id="clip0"><path fill="#fff" transform="translate(0 .667)" d="M0 0h24v24H0z"/></clipPath></defs></svg>