<svg width="24" height="25" fill="none" xmlns="http://www.w3.org/2000/svg"><g clip-path="url(#clip0)"><rect y=".667" width="24" height="24" rx="12" fill="#40B8A8"/><path d="M10.76 18.064c.389.744 1.528 1.374 2.738 1.374 3.604 0 6.198-3.315 6.198-7.431 0-3.946-3.221-6.899-7.364-6.899-5.155 0-7.89 3.46-7.89 7.23 0 1.754.931 3.932 2.423 4.626.228.108.348.06.399-.157.04-.168.241-.976.332-1.354a.355.355 0 00-.084-.342c-.493-.6-.888-1.7-.888-2.726 0-2.634 1.994-5.185 5.393-5.185 2.936 0 4.99 1.998 4.99 4.86 0 3.232-1.632 5.47-3.757 5.47-1.173 0-2.051-.968-1.77-2.158.34-1.421.99-2.953.99-3.979 0-.918-.493-1.682-1.512-1.682-1.2 0-2.162 1.24-2.162 2.9 0 1.058.358 1.772.358 1.772s-1.183 5.005-1.4 5.937c-.249 1.072-.135 2.61-.028 3.55.245.093.486.187.738.264.486-.78 1.27-2.155 1.548-3.235.148-.553.748-2.835.748-2.835z" fill="#fff"/></g><defs><clipPath id="clip0"><path fill="#fff" transform="translate(0 .667)" d="M0 0h24v24H0z"/></clipPath></defs></svg>